<svg xmlns="http://www.w3.org/2000/svg" viewBox="0 0 515.58 497.4"><defs><style>.a{fill:#394976;}</style></defs><title>Vector Smart Object11</title><path class="a" d="M301.62,190.8l214,214.3h-14q-28.94,0-57.88,0a5.21,5.21,0,0,1-4.1-1.77q-37.15-37.54-74.41-75-33.73-34-67.38-68.1-31.64-32-63.37-63.83a6.48,6.48,0,0,0-4.19-1.55q-43.28-.13-86.56,0a7.61,7.61,0,0,1-6.2-2.57c-14.46-15.41-29-30.7-43.59-46-0.36-.38-0.69-0.79-1.53-1.74H96.1q95.45,0,190.9,0c6.87,0,13-2,16.42-8.68a13.29,13.29,0,0,0,1.46-5.8q0.15-33.45,0-66.91c0-9.88-5.78-16.09-15.63-17-2.28-.21-4.59-0.24-6.88-0.24q-73.68,0-147.35,0a5,5,0,0,1-3.28-1.2C117.4,30.21,103.11,15.63,88.52.78A18.69,18.69,0,0,1,90.63.51q103.55,0,207.09,0C310,0.56,322,2.57,333,8.7c14.06,7.82,21.23,19.91,21.6,35.61,0.51,21.67.22,43.36,0.24,65,0,10.62-.09,21.24-0.1,31.86,0,18.79-9,32.23-24.87,41.47a57.28,57.28,0,0,1-25.37,7.78C303.72,190.52,303,190.64,301.62,190.8Z"/><path class="a" d="M0,0H55.17c0,1,0,1.76,0,2.52q0,139.26-.08,278.52c0,9.57,5.12,14.32,14.35,14.28,16.55-.08,105.05-0.05,132.76,0a5.07,5.07,0,0,1,3.45,1.28l42.53,48.5L37,345.41c-15.5.08-34-13-36.31-31.06A63.34,63.34,0,0,1,0,306.45Q0,154.71,0,3C0,2,0,1.06,0,0Z"/><path class="a" d="M15.81,432.09v55H34.67v9.1H6.13V432.09h9.68Z"/><path class="a" d="M55,432.09v64.14H45.29V432.09H55Z"/><path class="a" d="M89.53,441.19v55H79.85v-55H65.1v-9.1h39.13v9.1H89.53Z"/><path class="a" d="M132,441.19v55h-9.68v-55H107.59v-9.1h39.13v9.1H132Z"/><path class="a" d="M166.49,432.09v55h18.86v9.1H156.81V432.09h9.68Z"/><path class="a" d="M231.38,441.19H205.66V456.6h25v9.1h-25v21.44h25.72v9.1H196V432.09h35.39v9.1Z"/><path class="a" d="M295,468.9l19.86,27.33H303L284.66,470h-1.74v26.25h-9.68V432.09h11.34q12.71,0,18.36,4.78a17.55,17.55,0,0,1,6.23,14,18.23,18.23,0,0,1-3.91,11.71A17.41,17.41,0,0,1,295,468.9Zm-12-7.35H286q13.75,0,13.75-10.51,0-9.85-13.38-9.85h-3.45v20.36Z"/><path class="a" d="M321.25,463.87a31.41,31.41,0,0,1,9.93-23.26,32.68,32.68,0,0,1,23.76-9.72,33.55,33.55,0,0,1,33.36,33.36,31.54,31.54,0,0,1-9.89,23.47,33.89,33.89,0,0,1-46.28,1.08Q321.25,479.28,321.25,463.87ZM331,464q0,10.63,7.15,17.47a23.68,23.68,0,0,0,33.44-.12,24.86,24.86,0,0,0,.08-34.37,23.93,23.93,0,0,0-33.77,0A23.11,23.11,0,0,0,331,464Z"/><path class="a" d="M449.32,435.52V447q-8.39-7-17.37-7A22.11,22.11,0,0,0,415.3,447a24,24,0,0,0-6.81,17.28,23.37,23.37,0,0,0,6.81,17A22.5,22.5,0,0,0,432,488.3a20.48,20.48,0,0,0,8.68-1.66,25,25,0,0,0,4.13-2.24,48.86,48.86,0,0,0,4.51-3.41v11.69a34.84,34.84,0,0,1-17.45,4.72,32.19,32.19,0,0,1-23.47-9.6,31.81,31.81,0,0,1-9.68-23.35,32.93,32.93,0,0,1,8.1-21.85q10-11.76,25.8-11.76A32.87,32.87,0,0,1,449.32,435.52Z"/><path class="a" d="M474.45,457.68l25-25.59h12.92l-29,29,29.16,35.1h-13l-23.1-28.54-2,2v26.55h-9.68V432.09h9.68v25.59Z"/><path class="a" d="M33.32,372.09v7.13q-5.23-4.37-10.82-4.37a13.77,13.77,0,0,0-10.38,4.43A14.92,14.92,0,0,0,7.88,390a14.56,14.56,0,0,0,4.24,10.61A14,14,0,0,0,22.52,405a12.76,12.76,0,0,0,5.41-1,15.64,15.64,0,0,0,2.58-1.4,30.56,30.56,0,0,0,2.81-2.12v7.29a21.7,21.7,0,0,1-10.87,2.94,20,20,0,0,1-14.62-6,19.82,19.82,0,0,1-6-14.54,20.52,20.52,0,0,1,5-13.61,20.09,20.09,0,0,1,16.07-7.32A20.47,20.47,0,0,1,33.32,372.09Z"/><path class="a" d="M60.24,374.22A3.8,3.8,0,0,1,64,370.47a3.67,3.67,0,0,1,2.69,1.11,3.58,3.58,0,0,1,1.11,2.67,3.67,3.67,0,0,1-1.11,2.69A3.58,3.58,0,0,1,64,378.05,3.8,3.8,0,0,1,60.24,374.22Zm6.7,10.48v25.21H61.12V384.7h5.82Z"/><path class="a" d="M101.62,390.14v19.77H95.8V390.14H93.32V384.7H95.8v-9.24h5.82v9.24h4.53v5.43h-4.53Z"/><path class="a" d="M139.36,405.23L128,384.7h6.75l7.71,14.49,7.19-14.49h6.57l-20.08,38.92h-6.65Z"/><path class="a" d="M218,397.13a12.52,12.52,0,0,1,3.91-9.29,13.79,13.79,0,0,1,19.1,0,13.49,13.49,0,0,1,0,19,13.35,13.35,0,0,1-9.65,3.8,12.81,12.81,0,0,1-9.5-3.88A13.05,13.05,0,0,1,218,397.13Zm6,0.1a8.5,8.5,0,0,0,2,6,7.84,7.84,0,0,0,10.92,0,9.47,9.47,0,0,0,0-11.75,7.75,7.75,0,0,0-10.87,0A8.1,8.1,0,0,0,224,397.23Z"/><path class="a" d="M278.38,390.14v19.77h-5.85V390.14h-2.07V384.7h2.07V375q0-4.76,1.66-6.73a8.12,8.12,0,0,1,6.63-2.74,11.38,11.38,0,0,1,3.91.91v6l-0.6-.31a7.31,7.31,0,0,0-3.11-1,2.11,2.11,0,0,0-2.1,1.11,10.71,10.71,0,0,0-.54,4.19v8.31h6.34v5.43h-6.34Z"/></svg>